M48
;DRILL file {KiCad 0.201505162027+5655~23~ubuntu14.04.1-product} date Di 25 Aug 2015 00:43:16 CEST
;FORMAT={-:-/ absolute / metric / decimal}
FMAT,2
METRIC,TZ
T1C0.800
T2C0.900
T3C1.016
%
G90
G05
M71
T1
X145.415Y-72.898
X148.915Y-72.898
X153.543Y-72.898
X157.043Y-72.898
T2
X145.669Y-65.913
X146.05Y-77.724
X147.193Y-52.832
X148.463Y-77.724
X148.717Y-65.913
X149.34Y-94.752
X149.86Y-42.164
X151.257Y-38.227
X151.257Y-97.028
X151.257Y-99.568
X152.654Y-42.164
X152.935Y-94.742
X153.797Y-65.913
X154.305Y-77.724
X155.321Y-52.832
X156.718Y-77.724
X156.845Y-65.913
T3
X139.7Y-73.406
X142.24Y-56.134
X143.764Y-91.186
X159.004Y-91.186
X160.274Y-56.134
X162.814Y-73.406
T0
M30
