G04 #@! TF.FileFunction,Copper,L1,Top,Signal*
%FSLAX46Y46*%
G04 Gerber Fmt 4.6, Leading zero omitted, Abs format (unit mm)*
G04 Created by KiCad (PCBNEW 0.201505162027+5655~23~ubuntu14.04.1-product) date Di 25 Aug 2015 00:43:14 CEST*
%MOMM*%
G01*
G04 APERTURE LIST*
%ADD10C,0.100000*%
%ADD11C,2.235200*%
%ADD12R,2.200000X2.200000*%
%ADD13R,0.609600X0.889000*%
%ADD14C,1.300000*%
%ADD15R,1.300000X1.300000*%
%ADD16R,0.900000X1.700000*%
%ADD17C,1.200000*%
%ADD18C,0.350000*%
%ADD19C,0.254000*%
G04 APERTURE END LIST*
D10*
D11*
X142240000Y-56134000D03*
X143764000Y-91186000D03*
X160274000Y-56134000D03*
X159004000Y-91186000D03*
X139700000Y-73406000D03*
D10*
G36*
X148519941Y-41189887D02*
X147532113Y-40202059D01*
X148239219Y-39494953D01*
X149227047Y-40482781D01*
X148519941Y-41189887D01*
X148519941Y-41189887D01*
G37*
G36*
X149956781Y-39753047D02*
X148968953Y-38765219D01*
X149676059Y-38058113D01*
X150663887Y-39045941D01*
X149956781Y-39753047D01*
X149956781Y-39753047D01*
G37*
G36*
X154981887Y-40202059D02*
X153994059Y-41189887D01*
X153286953Y-40482781D01*
X154274781Y-39494953D01*
X154981887Y-40202059D01*
X154981887Y-40202059D01*
G37*
G36*
X153545047Y-38765219D02*
X152557219Y-39753047D01*
X151850113Y-39045941D01*
X152837941Y-38058113D01*
X153545047Y-38765219D01*
X153545047Y-38765219D01*
G37*
D12*
X153797000Y-63500000D03*
X156845000Y-63500000D03*
X145669000Y-63500000D03*
X148717000Y-63500000D03*
D13*
X156273500Y-70231000D03*
X154368500Y-70231000D03*
X155321000Y-67691000D03*
X148018500Y-70231000D03*
X146113500Y-70231000D03*
X147066000Y-67691000D03*
D14*
X157043000Y-72898000D03*
D15*
X153543000Y-72898000D03*
D14*
X148915000Y-72898000D03*
D15*
X145415000Y-72898000D03*
D16*
X153871000Y-75438000D03*
X156771000Y-75438000D03*
X145616000Y-75438000D03*
X148516000Y-75438000D03*
D11*
X162814000Y-73406000D03*
D17*
X154305000Y-77724000D03*
X153797000Y-65913000D03*
X146050000Y-77724000D03*
X148717000Y-65913000D03*
X152654000Y-42164000D03*
X149860000Y-42164000D03*
X151256661Y-38227000D03*
X147193000Y-52832000D03*
X155321000Y-52832000D03*
X156845000Y-65913000D03*
X145669000Y-65913000D03*
X152935305Y-94742000D03*
X149339935Y-94752160D03*
X148463000Y-77724000D03*
X156718000Y-77724000D03*
X151257000Y-99568000D03*
X151257000Y-97028000D03*
D18*
X142113000Y-54864000D02*
X141097000Y-55880000D01*
X141097000Y-55880000D02*
X141097000Y-58166000D01*
X142113000Y-53213000D02*
X142113000Y-54864000D01*
X157353000Y-95631000D02*
X157353000Y-96647000D01*
X154813000Y-99949000D02*
X154813000Y-100457000D01*
X156210000Y-98552000D02*
X154813000Y-99949000D01*
X156210000Y-97790000D02*
X156210000Y-98552000D01*
X157353000Y-96647000D02*
X156210000Y-97790000D01*
X160528000Y-89535000D02*
X160528000Y-90297000D01*
X162179000Y-58166000D02*
X162179000Y-59436000D01*
X161544000Y-57531000D02*
X162179000Y-58166000D01*
X161544000Y-55880000D02*
X161544000Y-57531000D01*
X160782000Y-55118000D02*
X161544000Y-55880000D01*
X160782000Y-53467000D02*
X160782000Y-55118000D01*
X159766000Y-52451000D02*
X160782000Y-53467000D01*
X162179000Y-59436000D02*
X162179000Y-60452000D01*
X162179000Y-60452000D02*
X162814000Y-61087000D01*
X159766000Y-51181000D02*
X159766000Y-52451000D01*
X163830000Y-65913000D02*
X163322000Y-65405000D01*
X163322000Y-65405000D02*
X163322000Y-63754000D01*
X163322000Y-63754000D02*
X162814000Y-63246000D01*
X162814000Y-63246000D02*
X162814000Y-61087000D01*
X163195000Y-81534000D02*
X162560000Y-82169000D01*
X162560000Y-82169000D02*
X162560000Y-84455000D01*
X162560000Y-84455000D02*
X161544000Y-85471000D01*
X161544000Y-85471000D02*
X161544000Y-87503000D01*
X161544000Y-87503000D02*
X160528000Y-88519000D01*
X160528000Y-88519000D02*
X160528000Y-89535000D01*
X163830000Y-76835000D02*
X163830000Y-77978000D01*
X163830000Y-74422000D02*
X163830000Y-66167000D01*
X163830000Y-74422000D02*
X163830000Y-76835000D01*
X163195000Y-78613000D02*
X163195000Y-81026000D01*
X163830000Y-77978000D02*
X163195000Y-78613000D01*
X163195000Y-81026000D02*
X163195000Y-81534000D01*
X163830000Y-66167000D02*
X163830000Y-65913000D01*
X158623000Y-94361000D02*
X157353000Y-95631000D01*
X157353000Y-95631000D02*
X157353000Y-95631000D01*
X158623000Y-93472000D02*
X158623000Y-94361000D01*
X159512000Y-92583000D02*
X158623000Y-93472000D01*
X159512000Y-91313000D02*
X159512000Y-92583000D01*
X160528000Y-90297000D02*
X159512000Y-91313000D01*
X145415000Y-96901000D02*
X146431000Y-97917000D01*
X138557000Y-78232000D02*
X139319000Y-78994000D01*
X139319000Y-78994000D02*
X139319000Y-80645000D01*
X139319000Y-80645000D02*
X139954000Y-81280000D01*
X139954000Y-81280000D02*
X139954000Y-83439000D01*
X139954000Y-83439000D02*
X140716000Y-84201000D01*
X140716000Y-84201000D02*
X140716000Y-86106000D01*
X140716000Y-86106000D02*
X141351000Y-86741000D01*
X141351000Y-86741000D02*
X141351000Y-88011000D01*
X141351000Y-88011000D02*
X142240000Y-88900000D01*
X142240000Y-88900000D02*
X142240000Y-90170000D01*
X142240000Y-90170000D02*
X143256000Y-91186000D01*
X143256000Y-91186000D02*
X143256000Y-92456000D01*
X143256000Y-92456000D02*
X144399000Y-93599000D01*
X144399000Y-93599000D02*
X144399000Y-94615000D01*
X144399000Y-94615000D02*
X145415000Y-95631000D01*
X145415000Y-95631000D02*
X145415000Y-96901000D01*
X138938000Y-66040000D02*
X138938000Y-64897000D01*
X138938000Y-64897000D02*
X139573000Y-64262000D01*
X142748000Y-52578000D02*
X142113000Y-53213000D01*
X141097000Y-58166000D02*
X140208000Y-59055000D01*
X140208000Y-59055000D02*
X140208000Y-61341000D01*
X140208000Y-61341000D02*
X139573000Y-61976000D01*
X139573000Y-61976000D02*
X139573000Y-64262000D01*
X142748000Y-50800000D02*
X142748000Y-52578000D01*
X138557000Y-77597000D02*
X138557000Y-66421000D01*
X138938000Y-66040000D02*
X138557000Y-66421000D01*
X138557000Y-77597000D02*
X138557000Y-78232000D01*
X147574000Y-99822000D02*
X147574000Y-100457000D01*
X146431000Y-98679000D02*
X147574000Y-99822000D01*
X146431000Y-97917000D02*
X146431000Y-98679000D01*
X142875000Y-49784000D02*
X143129000Y-50038000D01*
X143129000Y-50038000D02*
X144272000Y-51181000D01*
X144272000Y-51181000D02*
X151257000Y-51181000D01*
X151257000Y-79883000D02*
X151257000Y-51181000D01*
X151257000Y-91440000D02*
X151257000Y-79883000D01*
X151257000Y-91440000D02*
X151257000Y-93853000D01*
X151257000Y-51181000D02*
X158242000Y-51181000D01*
X158242000Y-51181000D02*
X159639000Y-49784000D01*
X154305000Y-70294500D02*
X154368500Y-70231000D01*
X154368500Y-72072500D02*
X153543000Y-72898000D01*
X154368500Y-70231000D02*
X154368500Y-72072500D01*
X154305000Y-73660000D02*
X153543000Y-72898000D01*
X154305000Y-75184000D02*
X154305000Y-73660000D01*
X154051000Y-75438000D02*
X154305000Y-75184000D01*
X153871000Y-75438000D02*
X154051000Y-75438000D01*
X154305000Y-75872000D02*
X153871000Y-75438000D01*
X154305000Y-75872000D02*
X154305000Y-77724000D01*
X153797000Y-65913000D02*
X154813000Y-65913000D01*
X155321000Y-66421000D02*
X155321000Y-67691000D01*
X154813000Y-65913000D02*
X155321000Y-66421000D01*
X153797000Y-63500000D02*
X153797000Y-65913000D01*
X146050000Y-70294500D02*
X146113500Y-70231000D01*
X146113500Y-72199500D02*
X145415000Y-72898000D01*
X146113500Y-70231000D02*
X146113500Y-72199500D01*
X146050000Y-75872000D02*
X145616000Y-75438000D01*
X146050000Y-75872000D02*
X146050000Y-77724000D01*
X145415000Y-75237000D02*
X145616000Y-75438000D01*
X146050000Y-73533000D02*
X145415000Y-72898000D01*
X146050000Y-75057000D02*
X146050000Y-73533000D01*
X145669000Y-75438000D02*
X146050000Y-75057000D01*
X145616000Y-75438000D02*
X145669000Y-75438000D01*
X148717000Y-65913000D02*
X147574000Y-65913000D01*
X148717000Y-63500000D02*
X148717000Y-65913000D01*
X147066000Y-66421000D02*
X147066000Y-67691000D01*
X147574000Y-65913000D02*
X147066000Y-66421000D01*
X154134420Y-40342420D02*
X154134420Y-40429580D01*
X154134420Y-40342420D02*
X154940000Y-41148000D01*
X154432000Y-42164000D02*
X152654000Y-42164000D01*
X154940000Y-41656000D02*
X154432000Y-42164000D01*
X154940000Y-41148000D02*
X154940000Y-41656000D01*
X148379580Y-40342420D02*
X148379580Y-40429580D01*
X148082000Y-42164000D02*
X147574000Y-41656000D01*
X147574000Y-41656000D02*
X147574000Y-41148000D01*
X147574000Y-41148000D02*
X148379580Y-40342420D01*
X149860000Y-42164000D02*
X148082000Y-42164000D01*
X152019000Y-38227000D02*
X152697580Y-38905580D01*
X149816420Y-38905580D02*
X150495000Y-38227000D01*
X150495000Y-38227000D02*
X151458760Y-38227000D01*
X151458760Y-38227000D02*
X152019000Y-38227000D01*
X151458760Y-38227000D02*
X151256661Y-38227000D01*
X156845000Y-63500000D02*
X156845000Y-65913000D01*
X145669000Y-63500000D02*
X145669000Y-65913000D01*
X149350095Y-94742000D02*
X149339935Y-94752160D01*
X152935305Y-94742000D02*
X149350095Y-94742000D01*
X148516000Y-77671000D02*
X148463000Y-77724000D01*
X148516000Y-75438000D02*
X148516000Y-77671000D01*
X148516000Y-73297000D02*
X148915000Y-72898000D01*
X148516000Y-75438000D02*
X148516000Y-73297000D01*
X156771000Y-73170000D02*
X157043000Y-72898000D01*
X156771000Y-75438000D02*
X156771000Y-73170000D01*
X156771000Y-77671000D02*
X156718000Y-77724000D01*
X156771000Y-75438000D02*
X156771000Y-77671000D01*
X151257000Y-99568000D02*
X151257000Y-97028000D01*
D19*
G36*
X151917462Y-38305070D02*
X151692958Y-38305070D01*
X151490414Y-38507614D01*
X151311785Y-38686243D01*
X151257000Y-38818505D01*
X151202215Y-38686243D01*
X151023586Y-38507614D01*
X150821042Y-38305070D01*
X150596538Y-38305070D01*
X150708790Y-38192818D01*
X150663416Y-38147444D01*
X151149947Y-38036134D01*
X151844287Y-38153740D01*
X151805210Y-38192818D01*
X151917462Y-38305070D01*
X151917462Y-38305070D01*
G37*
X151917462Y-38305070D02*
X151692958Y-38305070D01*
X151490414Y-38507614D01*
X151311785Y-38686243D01*
X151257000Y-38818505D01*
X151202215Y-38686243D01*
X151023586Y-38507614D01*
X150821042Y-38305070D01*
X150596538Y-38305070D01*
X150708790Y-38192818D01*
X150663416Y-38147444D01*
X151149947Y-38036134D01*
X151844287Y-38153740D01*
X151805210Y-38192818D01*
X151917462Y-38305070D01*
G36*
X159033637Y-49243849D02*
X157906487Y-50371000D01*
X151257000Y-50371000D01*
X144607512Y-50371000D01*
X143701758Y-49465246D01*
X143701756Y-49465244D01*
X143701756Y-49465243D01*
X143558927Y-49322414D01*
X144142193Y-46390134D01*
X146161380Y-43368207D01*
X147228037Y-42455549D01*
X147509243Y-42736756D01*
X147509244Y-42736756D01*
X147640635Y-42824549D01*
X147772026Y-42912342D01*
X147772027Y-42912342D01*
X148082000Y-42974000D01*
X148923556Y-42974000D01*
X149159515Y-43210371D01*
X149613266Y-43398785D01*
X150104579Y-43399214D01*
X150558657Y-43211592D01*
X150906371Y-42864485D01*
X151094785Y-42410734D01*
X151095214Y-41919421D01*
X150907592Y-41465343D01*
X150560485Y-41117629D01*
X150106734Y-40929215D01*
X149692778Y-40928853D01*
X149822845Y-40736165D01*
X149874475Y-40486844D01*
X149855305Y-40388047D01*
X150083090Y-40388047D01*
X150316480Y-40291374D01*
X150557291Y-40050563D01*
X150557291Y-39826056D01*
X149816420Y-39085185D01*
X149802277Y-39099327D01*
X149622672Y-38919722D01*
X149636815Y-38905580D01*
X149622672Y-38891437D01*
X149802277Y-38711832D01*
X149816420Y-38725975D01*
X149830562Y-38711832D01*
X150010167Y-38891437D01*
X149996025Y-38905580D01*
X150736896Y-39646451D01*
X150961403Y-39646451D01*
X151202214Y-39405640D01*
X151257000Y-39273374D01*
X151311786Y-39405640D01*
X151552597Y-39646451D01*
X151777104Y-39646451D01*
X152517975Y-38905580D01*
X152503832Y-38891437D01*
X152683437Y-38711832D01*
X152697580Y-38725975D01*
X152711722Y-38711832D01*
X152891327Y-38891437D01*
X152877185Y-38905580D01*
X152891327Y-38919722D01*
X152711722Y-39099327D01*
X152697580Y-39085185D01*
X152517975Y-39264790D01*
X151956709Y-39826056D01*
X151956709Y-40050563D01*
X152197520Y-40291374D01*
X152430910Y-40388047D01*
X152658301Y-40388047D01*
X152639525Y-40478718D01*
X152688022Y-40728668D01*
X152821523Y-40929145D01*
X152409421Y-40928786D01*
X151955343Y-41116408D01*
X151607629Y-41463515D01*
X151419215Y-41917266D01*
X151418786Y-42408579D01*
X151606408Y-42862657D01*
X151953515Y-43210371D01*
X152407266Y-43398785D01*
X152898579Y-43399214D01*
X153352657Y-43211592D01*
X153590664Y-42974000D01*
X154432000Y-42974000D01*
X154432000Y-42973999D01*
X154741973Y-42912342D01*
X154741974Y-42912342D01*
X155004756Y-42736756D01*
X155280212Y-42461299D01*
X157726150Y-45116788D01*
X158978006Y-48528827D01*
X159033637Y-49243849D01*
X159033637Y-49243849D01*
G37*
X159033637Y-49243849D02*
X157906487Y-50371000D01*
X151257000Y-50371000D01*
X144607512Y-50371000D01*
X143701758Y-49465246D01*
X143701756Y-49465244D01*
X143701756Y-49465243D01*
X143558927Y-49322414D01*
X144142193Y-46390134D01*
X146161380Y-43368207D01*
X147228037Y-42455549D01*
X147509243Y-42736756D01*
X147509244Y-42736756D01*
X147640635Y-42824549D01*
X147772026Y-42912342D01*
X147772027Y-42912342D01*
X148082000Y-42974000D01*
X148923556Y-42974000D01*
X149159515Y-43210371D01*
X149613266Y-43398785D01*
X150104579Y-43399214D01*
X150558657Y-43211592D01*
X150906371Y-42864485D01*
X151094785Y-42410734D01*
X151095214Y-41919421D01*
X150907592Y-41465343D01*
X150560485Y-41117629D01*
X150106734Y-40929215D01*
X149692778Y-40928853D01*
X149822845Y-40736165D01*
X149874475Y-40486844D01*
X149855305Y-40388047D01*
X150083090Y-40388047D01*
X150316480Y-40291374D01*
X150557291Y-40050563D01*
X150557291Y-39826056D01*
X149816420Y-39085185D01*
X149802277Y-39099327D01*
X149622672Y-38919722D01*
X149636815Y-38905580D01*
X149622672Y-38891437D01*
X149802277Y-38711832D01*
X149816420Y-38725975D01*
X149830562Y-38711832D01*
X150010167Y-38891437D01*
X149996025Y-38905580D01*
X150736896Y-39646451D01*
X150961403Y-39646451D01*
X151202214Y-39405640D01*
X151257000Y-39273374D01*
X151311786Y-39405640D01*
X151552597Y-39646451D01*
X151777104Y-39646451D01*
X152517975Y-38905580D01*
X152503832Y-38891437D01*
X152683437Y-38711832D01*
X152697580Y-38725975D01*
X152711722Y-38711832D01*
X152891327Y-38891437D01*
X152877185Y-38905580D01*
X152891327Y-38919722D01*
X152711722Y-39099327D01*
X152697580Y-39085185D01*
X152517975Y-39264790D01*
X151956709Y-39826056D01*
X151956709Y-40050563D01*
X152197520Y-40291374D01*
X152430910Y-40388047D01*
X152658301Y-40388047D01*
X152639525Y-40478718D01*
X152688022Y-40728668D01*
X152821523Y-40929145D01*
X152409421Y-40928786D01*
X151955343Y-41116408D01*
X151607629Y-41463515D01*
X151419215Y-41917266D01*
X151418786Y-42408579D01*
X151606408Y-42862657D01*
X151953515Y-43210371D01*
X152407266Y-43398785D01*
X152898579Y-43399214D01*
X153352657Y-43211592D01*
X153590664Y-42974000D01*
X154432000Y-42974000D01*
X154432000Y-42973999D01*
X154741973Y-42912342D01*
X154741974Y-42912342D01*
X155004756Y-42736756D01*
X155280212Y-42461299D01*
X157726150Y-45116788D01*
X158978006Y-48528827D01*
X159033637Y-49243849D01*
G36*
X163020000Y-76555288D02*
X162847977Y-77814510D01*
X162622244Y-78040244D01*
X162446658Y-78303026D01*
X162385000Y-78613000D01*
X162385000Y-81026000D01*
X162385000Y-81198487D01*
X161987244Y-81596244D01*
X161811658Y-81859026D01*
X161750000Y-82169000D01*
X161750000Y-84119487D01*
X160971244Y-84898244D01*
X160795658Y-85161026D01*
X160734000Y-85471000D01*
X160734000Y-87167487D01*
X159955244Y-87946244D01*
X159779658Y-88209026D01*
X159718000Y-88519000D01*
X159718000Y-89535000D01*
X159718000Y-89584791D01*
X159354143Y-89433705D01*
X158656916Y-89433097D01*
X158328223Y-89568910D01*
X158328223Y-72643519D01*
X158133005Y-72171057D01*
X157771845Y-71809265D01*
X157299724Y-71613223D01*
X157213300Y-71613147D01*
X157213300Y-70801810D01*
X157213300Y-70549191D01*
X157213300Y-70516750D01*
X157213300Y-69945250D01*
X157213300Y-69912809D01*
X157213300Y-69660190D01*
X157116627Y-69426801D01*
X156937998Y-69248173D01*
X156704609Y-69151500D01*
X156559250Y-69151500D01*
X156400500Y-69310250D01*
X156400500Y-70104000D01*
X157054550Y-70104000D01*
X157213300Y-69945250D01*
X157213300Y-70516750D01*
X157054550Y-70358000D01*
X156400500Y-70358000D01*
X156400500Y-71151750D01*
X156559250Y-71310500D01*
X156704609Y-71310500D01*
X156937998Y-71213827D01*
X157116627Y-71035199D01*
X157213300Y-70801810D01*
X157213300Y-71613147D01*
X156788519Y-71612777D01*
X156316057Y-71807995D01*
X156146500Y-71977255D01*
X156146500Y-71151750D01*
X156146500Y-70358000D01*
X156146500Y-70104000D01*
X156146500Y-69310250D01*
X155987750Y-69151500D01*
X155842391Y-69151500D01*
X155609002Y-69248173D01*
X155430373Y-69426801D01*
X155333700Y-69660190D01*
X155333700Y-69912809D01*
X155333700Y-69945250D01*
X155492450Y-70104000D01*
X156146500Y-70104000D01*
X156146500Y-70358000D01*
X155492450Y-70358000D01*
X155333700Y-70516750D01*
X155333700Y-70549191D01*
X155333700Y-70801810D01*
X155430373Y-71035199D01*
X155609002Y-71213827D01*
X155842391Y-71310500D01*
X155987750Y-71310500D01*
X156146500Y-71151750D01*
X156146500Y-71977255D01*
X155954265Y-72169155D01*
X155758223Y-72641276D01*
X155757777Y-73152481D01*
X155952995Y-73624943D01*
X155961000Y-73632962D01*
X155961000Y-74064969D01*
X155866073Y-74127327D01*
X155723623Y-74338360D01*
X155673560Y-74588000D01*
X155673560Y-76288000D01*
X155720537Y-76530123D01*
X155860327Y-76742927D01*
X155915440Y-76780129D01*
X155671629Y-77023515D01*
X155511338Y-77409537D01*
X155352592Y-77025343D01*
X155115000Y-76787335D01*
X155115000Y-75872000D01*
X155053343Y-75562027D01*
X155053342Y-75562026D01*
X155030606Y-75528000D01*
X155030606Y-75527999D01*
X155053342Y-75493974D01*
X155053342Y-75493973D01*
X155114999Y-75184000D01*
X155115000Y-75184000D01*
X155115000Y-73660000D01*
X155080766Y-73487896D01*
X155053343Y-73350027D01*
X155053342Y-73350026D01*
X154877757Y-73087244D01*
X154840440Y-73049927D01*
X154840440Y-72746072D01*
X154941256Y-72645257D01*
X154941256Y-72645256D01*
X155029049Y-72513865D01*
X155116842Y-72382474D01*
X155116842Y-72382473D01*
X155178499Y-72072500D01*
X155178500Y-72072500D01*
X155178500Y-71061695D01*
X155270677Y-70925140D01*
X155320740Y-70675500D01*
X155320740Y-69786500D01*
X155273763Y-69544377D01*
X155133973Y-69331573D01*
X154922940Y-69189123D01*
X154673300Y-69139060D01*
X154063700Y-69139060D01*
X153821577Y-69186037D01*
X153608773Y-69325827D01*
X153466323Y-69536860D01*
X153416260Y-69786500D01*
X153416260Y-70675500D01*
X153463237Y-70917623D01*
X153558500Y-71062643D01*
X153558500Y-71600560D01*
X152893000Y-71600560D01*
X152650877Y-71647537D01*
X152438073Y-71787327D01*
X152295623Y-71998360D01*
X152245560Y-72248000D01*
X152245560Y-73548000D01*
X152292537Y-73790123D01*
X152432327Y-74002927D01*
X152643360Y-74145377D01*
X152893000Y-74195440D01*
X152920095Y-74195440D01*
X152823623Y-74338360D01*
X152773560Y-74588000D01*
X152773560Y-76288000D01*
X152820537Y-76530123D01*
X152960327Y-76742927D01*
X153171360Y-76885377D01*
X153359260Y-76923058D01*
X153258629Y-77023515D01*
X153070215Y-77477266D01*
X153069786Y-77968579D01*
X153257408Y-78422657D01*
X153604515Y-78770371D01*
X154058266Y-78958785D01*
X154549579Y-78959214D01*
X155003657Y-78771592D01*
X155351371Y-78424485D01*
X155511661Y-78038462D01*
X155670408Y-78422657D01*
X156017515Y-78770371D01*
X156471266Y-78958785D01*
X156962579Y-78959214D01*
X157416657Y-78771592D01*
X157764371Y-78424485D01*
X157952785Y-77970734D01*
X157953214Y-77479421D01*
X157765592Y-77025343D01*
X157581000Y-76840428D01*
X157581000Y-76811030D01*
X157675927Y-76748673D01*
X157818377Y-76537640D01*
X157868440Y-76288000D01*
X157868440Y-74588000D01*
X157821463Y-74345877D01*
X157681673Y-74133073D01*
X157581879Y-74065711D01*
X157769943Y-73988005D01*
X158131735Y-73626845D01*
X158327777Y-73154724D01*
X158328223Y-72643519D01*
X158328223Y-89568910D01*
X158012529Y-89699352D01*
X157519085Y-90191936D01*
X157251705Y-90835857D01*
X157251097Y-91533084D01*
X157517352Y-92177471D01*
X158009936Y-92670915D01*
X158199753Y-92749734D01*
X158050244Y-92899244D01*
X157874658Y-93162026D01*
X157813000Y-93472000D01*
X157813000Y-94025487D01*
X156780244Y-95058244D01*
X156604658Y-95321026D01*
X156543000Y-95631000D01*
X156543000Y-96311487D01*
X155637244Y-97217244D01*
X155461658Y-97480026D01*
X155400000Y-97790000D01*
X155400000Y-98216487D01*
X154240244Y-99376244D01*
X154064658Y-99639026D01*
X154003000Y-99949000D01*
X154003000Y-100457000D01*
X154064658Y-100766974D01*
X154167912Y-100921504D01*
X152492214Y-103873721D01*
X152492214Y-99323421D01*
X152304592Y-98869343D01*
X152067000Y-98631335D01*
X152067000Y-97964443D01*
X152303371Y-97728485D01*
X152491785Y-97274734D01*
X152492214Y-96783421D01*
X152304592Y-96329343D01*
X151957485Y-95981629D01*
X151503734Y-95793215D01*
X151012421Y-95792786D01*
X150558343Y-95980408D01*
X150210629Y-96327515D01*
X150022215Y-96781266D01*
X150021786Y-97272579D01*
X150209408Y-97726657D01*
X150447000Y-97964664D01*
X150447000Y-98631556D01*
X150210629Y-98867515D01*
X150022215Y-99321266D01*
X150021786Y-99812579D01*
X150209408Y-100266657D01*
X150556515Y-100614371D01*
X151010266Y-100802785D01*
X151501579Y-100803214D01*
X151955657Y-100615592D01*
X152303371Y-100268485D01*
X152491785Y-99814734D01*
X152492214Y-99323421D01*
X152492214Y-103873721D01*
X152468389Y-103915696D01*
X151953079Y-104305655D01*
X151350691Y-104462750D01*
X150734040Y-104377363D01*
X150161705Y-104041798D01*
X150075176Y-103951472D01*
X148320340Y-100769969D01*
X148322342Y-100766974D01*
X148384000Y-100457000D01*
X148384000Y-99822000D01*
X148322342Y-99512027D01*
X148322342Y-99512026D01*
X148234549Y-99380635D01*
X148146756Y-99249244D01*
X148146756Y-99249243D01*
X147241000Y-98343487D01*
X147241000Y-97917000D01*
X147179342Y-97607027D01*
X147179342Y-97607026D01*
X147109012Y-97501770D01*
X147003757Y-97344244D01*
X146225000Y-96565487D01*
X146225000Y-95631000D01*
X146163342Y-95321027D01*
X146163342Y-95321026D01*
X146093012Y-95215770D01*
X145987757Y-95058244D01*
X145209000Y-94279487D01*
X145209000Y-93599000D01*
X145147342Y-93289027D01*
X145147342Y-93289026D01*
X145059549Y-93157635D01*
X144971756Y-93026244D01*
X144971756Y-93026243D01*
X144658307Y-92712795D01*
X144755471Y-92672648D01*
X145248915Y-92180064D01*
X145516295Y-91536143D01*
X145516903Y-90838916D01*
X145250648Y-90194529D01*
X144758064Y-89701085D01*
X144114143Y-89433705D01*
X143416916Y-89433097D01*
X143050000Y-89584703D01*
X143050000Y-88900000D01*
X143015766Y-88727896D01*
X142988343Y-88590027D01*
X142988342Y-88590026D01*
X142812757Y-88327244D01*
X142161000Y-87675487D01*
X142161000Y-86741000D01*
X142099343Y-86431027D01*
X142099342Y-86431026D01*
X141923757Y-86168244D01*
X141526000Y-85770487D01*
X141526000Y-84201000D01*
X141491766Y-84028896D01*
X141464343Y-83891027D01*
X141464342Y-83891026D01*
X141288757Y-83628244D01*
X140764000Y-83103487D01*
X140764000Y-81280000D01*
X140702343Y-80970027D01*
X140702342Y-80970026D01*
X140526757Y-80707244D01*
X140129000Y-80309487D01*
X140129000Y-78994000D01*
X140094766Y-78821896D01*
X140067343Y-78684027D01*
X140067342Y-78684026D01*
X139891757Y-78421244D01*
X139725203Y-78254690D01*
X139378983Y-75158320D01*
X140047084Y-75158903D01*
X140691471Y-74892648D01*
X141184915Y-74400064D01*
X141452295Y-73756143D01*
X141452903Y-73058916D01*
X141186648Y-72414529D01*
X140694064Y-71921085D01*
X140050143Y-71653705D01*
X139367000Y-71653109D01*
X139367000Y-66756512D01*
X139510756Y-66612757D01*
X139510756Y-66612756D01*
X139598549Y-66481365D01*
X139686342Y-66349974D01*
X139686342Y-66349973D01*
X139747999Y-66040000D01*
X139748000Y-66040000D01*
X139748000Y-65232512D01*
X140145756Y-64834756D01*
X140145757Y-64834756D01*
X140321342Y-64571974D01*
X140321343Y-64571973D01*
X140383000Y-64262000D01*
X140383000Y-62311512D01*
X140780756Y-61913756D01*
X140780757Y-61913756D01*
X140956342Y-61650974D01*
X140956343Y-61650973D01*
X141018000Y-61341000D01*
X141018000Y-59390512D01*
X141669756Y-58738756D01*
X141669757Y-58738756D01*
X141845342Y-58475974D01*
X141845343Y-58475973D01*
X141872766Y-58338103D01*
X141906999Y-58166000D01*
X141907000Y-58166000D01*
X141907000Y-57886309D01*
X142587084Y-57886903D01*
X143231471Y-57620648D01*
X143724915Y-57128064D01*
X143992295Y-56484143D01*
X143992903Y-55786916D01*
X143726648Y-55142529D01*
X143234064Y-54649085D01*
X142923000Y-54519919D01*
X142923000Y-53548512D01*
X143320756Y-53150756D01*
X143320757Y-53150756D01*
X143496342Y-52887974D01*
X143496343Y-52887973D01*
X143558000Y-52578000D01*
X143558000Y-51612512D01*
X143699243Y-51753756D01*
X143699244Y-51753756D01*
X143830635Y-51841549D01*
X143962026Y-51929342D01*
X143962027Y-51929342D01*
X144272000Y-51991000D01*
X150447000Y-51991000D01*
X150447000Y-62310112D01*
X150417463Y-62157877D01*
X150277673Y-61945073D01*
X150066640Y-61802623D01*
X149817000Y-61752560D01*
X147617000Y-61752560D01*
X147374877Y-61799537D01*
X147192018Y-61919655D01*
X147018640Y-61802623D01*
X146769000Y-61752560D01*
X144569000Y-61752560D01*
X144326877Y-61799537D01*
X144114073Y-61939327D01*
X143971623Y-62150360D01*
X143921560Y-62400000D01*
X143921560Y-64600000D01*
X143968537Y-64842123D01*
X144108327Y-65054927D01*
X144319360Y-65197377D01*
X144569000Y-65247440D01*
X144608126Y-65247440D01*
X144434215Y-65666266D01*
X144433786Y-66157579D01*
X144621408Y-66611657D01*
X144968515Y-66959371D01*
X145422266Y-67147785D01*
X145913579Y-67148214D01*
X146153337Y-67049147D01*
X146113760Y-67246500D01*
X146113760Y-68135500D01*
X146160737Y-68377623D01*
X146300527Y-68590427D01*
X146511560Y-68732877D01*
X146761200Y-68782940D01*
X147370800Y-68782940D01*
X147612923Y-68735963D01*
X147825727Y-68596173D01*
X147968177Y-68385140D01*
X148018240Y-68135500D01*
X148018240Y-67246500D01*
X147971263Y-67004377D01*
X147876000Y-66859356D01*
X147876000Y-66818610D01*
X148016515Y-66959371D01*
X148470266Y-67147785D01*
X148961579Y-67148214D01*
X149415657Y-66960592D01*
X149763371Y-66613485D01*
X149951785Y-66159734D01*
X149952214Y-65668421D01*
X149778267Y-65247440D01*
X149817000Y-65247440D01*
X150059123Y-65200463D01*
X150271927Y-65060673D01*
X150414377Y-64849640D01*
X150447000Y-64686964D01*
X150447000Y-79883000D01*
X150447000Y-91440000D01*
X150447000Y-93853000D01*
X150462714Y-93932000D01*
X150266236Y-93932000D01*
X150200223Y-93865871D01*
X150200223Y-72643519D01*
X150005005Y-72171057D01*
X149643845Y-71809265D01*
X149171724Y-71613223D01*
X148958300Y-71613036D01*
X148958300Y-70801810D01*
X148958300Y-70549191D01*
X148958300Y-70516750D01*
X148958300Y-69945250D01*
X148958300Y-69912809D01*
X148958300Y-69660190D01*
X148861627Y-69426801D01*
X148682998Y-69248173D01*
X148449609Y-69151500D01*
X148304250Y-69151500D01*
X148145500Y-69310250D01*
X148145500Y-70104000D01*
X148799550Y-70104000D01*
X148958300Y-69945250D01*
X148958300Y-70516750D01*
X148799550Y-70358000D01*
X148145500Y-70358000D01*
X148145500Y-71151750D01*
X148304250Y-71310500D01*
X148449609Y-71310500D01*
X148682998Y-71213827D01*
X148861627Y-71035199D01*
X148958300Y-70801810D01*
X148958300Y-71613036D01*
X148660519Y-71612777D01*
X148188057Y-71807995D01*
X147891500Y-72104033D01*
X147891500Y-71151750D01*
X147891500Y-70358000D01*
X147891500Y-70104000D01*
X147891500Y-69310250D01*
X147732750Y-69151500D01*
X147587391Y-69151500D01*
X147354002Y-69248173D01*
X147175373Y-69426801D01*
X147078700Y-69660190D01*
X147078700Y-69912809D01*
X147078700Y-69945250D01*
X147237450Y-70104000D01*
X147891500Y-70104000D01*
X147891500Y-70358000D01*
X147237450Y-70358000D01*
X147078700Y-70516750D01*
X147078700Y-70549191D01*
X147078700Y-70801810D01*
X147175373Y-71035199D01*
X147354002Y-71213827D01*
X147587391Y-71310500D01*
X147732750Y-71310500D01*
X147891500Y-71151750D01*
X147891500Y-72104033D01*
X147826265Y-72169155D01*
X147630223Y-72641276D01*
X147629777Y-73152481D01*
X147706000Y-73336954D01*
X147706000Y-74064969D01*
X147611073Y-74127327D01*
X147468623Y-74338360D01*
X147418560Y-74588000D01*
X147418560Y-76288000D01*
X147465537Y-76530123D01*
X147605327Y-76742927D01*
X147660440Y-76780129D01*
X147416629Y-77023515D01*
X147256338Y-77409537D01*
X147097592Y-77025343D01*
X146860000Y-76787335D01*
X146860000Y-75872000D01*
X146798343Y-75562027D01*
X146798342Y-75562026D01*
X146733177Y-75464499D01*
X146798342Y-75366974D01*
X146798342Y-75366973D01*
X146859999Y-75057000D01*
X146860000Y-75057000D01*
X146860000Y-73533000D01*
X146798343Y-73223027D01*
X146798342Y-73223026D01*
X146712440Y-73094465D01*
X146712440Y-73094464D01*
X146712440Y-72733069D01*
X146774049Y-72640865D01*
X146861842Y-72509474D01*
X146861842Y-72509473D01*
X146923499Y-72199500D01*
X146923500Y-72199500D01*
X146923500Y-71061695D01*
X147015677Y-70925140D01*
X147065740Y-70675500D01*
X147065740Y-69786500D01*
X147018763Y-69544377D01*
X146878973Y-69331573D01*
X146667940Y-69189123D01*
X146418300Y-69139060D01*
X145808700Y-69139060D01*
X145566577Y-69186037D01*
X145353773Y-69325827D01*
X145211323Y-69536860D01*
X145161260Y-69786500D01*
X145161260Y-70675500D01*
X145208237Y-70917623D01*
X145303500Y-71062643D01*
X145303500Y-71600560D01*
X144765000Y-71600560D01*
X144522877Y-71647537D01*
X144310073Y-71787327D01*
X144167623Y-71998360D01*
X144117560Y-72248000D01*
X144117560Y-73548000D01*
X144164537Y-73790123D01*
X144304327Y-74002927D01*
X144515360Y-74145377D01*
X144677007Y-74177793D01*
X144568623Y-74338360D01*
X144518560Y-74588000D01*
X144518560Y-76288000D01*
X144565537Y-76530123D01*
X144705327Y-76742927D01*
X144916360Y-76885377D01*
X145104260Y-76923058D01*
X145003629Y-77023515D01*
X144815215Y-77477266D01*
X144814786Y-77968579D01*
X145002408Y-78422657D01*
X145349515Y-78770371D01*
X145803266Y-78958785D01*
X146294579Y-78959214D01*
X146748657Y-78771592D01*
X147096371Y-78424485D01*
X147256661Y-78038462D01*
X147415408Y-78422657D01*
X147762515Y-78770371D01*
X148216266Y-78958785D01*
X148707579Y-78959214D01*
X149161657Y-78771592D01*
X149509371Y-78424485D01*
X149697785Y-77970734D01*
X149698214Y-77479421D01*
X149510592Y-77025343D01*
X149326000Y-76840428D01*
X149326000Y-76811030D01*
X149420927Y-76748673D01*
X149563377Y-76537640D01*
X149613440Y-76288000D01*
X149613440Y-74588000D01*
X149566463Y-74345877D01*
X149426673Y-74133073D01*
X149375101Y-74098261D01*
X149641943Y-73988005D01*
X150003735Y-73626845D01*
X150199777Y-73154724D01*
X150200223Y-72643519D01*
X150200223Y-93865871D01*
X150040420Y-93705789D01*
X149586669Y-93517375D01*
X149095356Y-93516946D01*
X148641278Y-93704568D01*
X148293564Y-94051675D01*
X148105150Y-94505426D01*
X148104721Y-94996739D01*
X148292343Y-95450817D01*
X148639450Y-95798531D01*
X149093201Y-95986945D01*
X149584514Y-95987374D01*
X150038592Y-95799752D01*
X150286777Y-95552000D01*
X151998861Y-95552000D01*
X152234820Y-95788371D01*
X152688571Y-95976785D01*
X153179884Y-95977214D01*
X153633962Y-95789592D01*
X153981676Y-95442485D01*
X154170090Y-94988734D01*
X154170519Y-94497421D01*
X153982897Y-94043343D01*
X153635790Y-93695629D01*
X153182039Y-93507215D01*
X152690726Y-93506786D01*
X152236648Y-93694408D01*
X152064329Y-93866425D01*
X152067000Y-93853000D01*
X152067000Y-91440000D01*
X152067000Y-79883000D01*
X152067000Y-64689887D01*
X152096537Y-64842123D01*
X152236327Y-65054927D01*
X152447360Y-65197377D01*
X152697000Y-65247440D01*
X152736126Y-65247440D01*
X152562215Y-65666266D01*
X152561786Y-66157579D01*
X152749408Y-66611657D01*
X153096515Y-66959371D01*
X153550266Y-67147785D01*
X154041579Y-67148214D01*
X154423054Y-66990590D01*
X154418823Y-66996860D01*
X154368760Y-67246500D01*
X154368760Y-68135500D01*
X154415737Y-68377623D01*
X154555527Y-68590427D01*
X154766560Y-68732877D01*
X155016200Y-68782940D01*
X155625800Y-68782940D01*
X155867923Y-68735963D01*
X156080727Y-68596173D01*
X156223177Y-68385140D01*
X156273240Y-68135500D01*
X156273240Y-67246500D01*
X156226263Y-67004377D01*
X156216271Y-66989166D01*
X156598266Y-67147785D01*
X157089579Y-67148214D01*
X157543657Y-66960592D01*
X157891371Y-66613485D01*
X158079785Y-66159734D01*
X158080214Y-65668421D01*
X157906267Y-65247440D01*
X157945000Y-65247440D01*
X158187123Y-65200463D01*
X158399927Y-65060673D01*
X158542377Y-64849640D01*
X158592440Y-64600000D01*
X158592440Y-62400000D01*
X158545463Y-62157877D01*
X158405673Y-61945073D01*
X158194640Y-61802623D01*
X157945000Y-61752560D01*
X155745000Y-61752560D01*
X155502877Y-61799537D01*
X155320018Y-61919655D01*
X155146640Y-61802623D01*
X154897000Y-61752560D01*
X152697000Y-61752560D01*
X152454877Y-61799537D01*
X152242073Y-61939327D01*
X152099623Y-62150360D01*
X152067000Y-62313035D01*
X152067000Y-51991000D01*
X158242000Y-51991000D01*
X158242000Y-51990999D01*
X158551973Y-51929342D01*
X158551974Y-51929342D01*
X158814756Y-51753756D01*
X158956000Y-51612512D01*
X158956000Y-52451000D01*
X159017658Y-52760974D01*
X159193244Y-53023756D01*
X159972000Y-53802512D01*
X159972000Y-54381136D01*
X159926916Y-54381097D01*
X159282529Y-54647352D01*
X158789085Y-55139936D01*
X158521705Y-55783857D01*
X158521097Y-56481084D01*
X158787352Y-57125471D01*
X159279936Y-57618915D01*
X159923857Y-57886295D01*
X160621084Y-57886903D01*
X160790841Y-57816760D01*
X160795658Y-57840974D01*
X160971244Y-58103756D01*
X161303757Y-58436270D01*
X161369000Y-58684588D01*
X161369000Y-59436000D01*
X161369000Y-60452000D01*
X161430658Y-60761974D01*
X161606244Y-61024756D01*
X162004000Y-61422512D01*
X162004000Y-63246000D01*
X162065658Y-63555974D01*
X162241244Y-63818756D01*
X162512000Y-64089512D01*
X162512000Y-65405000D01*
X162573658Y-65714974D01*
X162749244Y-65977756D01*
X163020000Y-66248512D01*
X163020000Y-71653579D01*
X162466916Y-71653097D01*
X161822529Y-71919352D01*
X161329085Y-72411936D01*
X161061705Y-73055857D01*
X161061097Y-73753084D01*
X161327352Y-74397471D01*
X161819936Y-74890915D01*
X162463857Y-75158295D01*
X163020000Y-75158779D01*
X163020000Y-76555288D01*
X163020000Y-76555288D01*
G37*
X163020000Y-76555288D02*
X162847977Y-77814510D01*
X162622244Y-78040244D01*
X162446658Y-78303026D01*
X162385000Y-78613000D01*
X162385000Y-81026000D01*
X162385000Y-81198487D01*
X161987244Y-81596244D01*
X161811658Y-81859026D01*
X161750000Y-82169000D01*
X161750000Y-84119487D01*
X160971244Y-84898244D01*
X160795658Y-85161026D01*
X160734000Y-85471000D01*
X160734000Y-87167487D01*
X159955244Y-87946244D01*
X159779658Y-88209026D01*
X159718000Y-88519000D01*
X159718000Y-89535000D01*
X159718000Y-89584791D01*
X159354143Y-89433705D01*
X158656916Y-89433097D01*
X158328223Y-89568910D01*
X158328223Y-72643519D01*
X158133005Y-72171057D01*
X157771845Y-71809265D01*
X157299724Y-71613223D01*
X157213300Y-71613147D01*
X157213300Y-70801810D01*
X157213300Y-70549191D01*
X157213300Y-70516750D01*
X157213300Y-69945250D01*
X157213300Y-69912809D01*
X157213300Y-69660190D01*
X157116627Y-69426801D01*
X156937998Y-69248173D01*
X156704609Y-69151500D01*
X156559250Y-69151500D01*
X156400500Y-69310250D01*
X156400500Y-70104000D01*
X157054550Y-70104000D01*
X157213300Y-69945250D01*
X157213300Y-70516750D01*
X157054550Y-70358000D01*
X156400500Y-70358000D01*
X156400500Y-71151750D01*
X156559250Y-71310500D01*
X156704609Y-71310500D01*
X156937998Y-71213827D01*
X157116627Y-71035199D01*
X157213300Y-70801810D01*
X157213300Y-71613147D01*
X156788519Y-71612777D01*
X156316057Y-71807995D01*
X156146500Y-71977255D01*
X156146500Y-71151750D01*
X156146500Y-70358000D01*
X156146500Y-70104000D01*
X156146500Y-69310250D01*
X155987750Y-69151500D01*
X155842391Y-69151500D01*
X155609002Y-69248173D01*
X155430373Y-69426801D01*
X155333700Y-69660190D01*
X155333700Y-69912809D01*
X155333700Y-69945250D01*
X155492450Y-70104000D01*
X156146500Y-70104000D01*
X156146500Y-70358000D01*
X155492450Y-70358000D01*
X155333700Y-70516750D01*
X155333700Y-70549191D01*
X155333700Y-70801810D01*
X155430373Y-71035199D01*
X155609002Y-71213827D01*
X155842391Y-71310500D01*
X155987750Y-71310500D01*
X156146500Y-71151750D01*
X156146500Y-71977255D01*
X155954265Y-72169155D01*
X155758223Y-72641276D01*
X155757777Y-73152481D01*
X155952995Y-73624943D01*
X155961000Y-73632962D01*
X155961000Y-74064969D01*
X155866073Y-74127327D01*
X155723623Y-74338360D01*
X155673560Y-74588000D01*
X155673560Y-76288000D01*
X155720537Y-76530123D01*
X155860327Y-76742927D01*
X155915440Y-76780129D01*
X155671629Y-77023515D01*
X155511338Y-77409537D01*
X155352592Y-77025343D01*
X155115000Y-76787335D01*
X155115000Y-75872000D01*
X155053343Y-75562027D01*
X155053342Y-75562026D01*
X155030606Y-75528000D01*
X155030606Y-75527999D01*
X155053342Y-75493974D01*
X155053342Y-75493973D01*
X155114999Y-75184000D01*
X155115000Y-75184000D01*
X155115000Y-73660000D01*
X155080766Y-73487896D01*
X155053343Y-73350027D01*
X155053342Y-73350026D01*
X154877757Y-73087244D01*
X154840440Y-73049927D01*
X154840440Y-72746072D01*
X154941256Y-72645257D01*
X154941256Y-72645256D01*
X155029049Y-72513865D01*
X155116842Y-72382474D01*
X155116842Y-72382473D01*
X155178499Y-72072500D01*
X155178500Y-72072500D01*
X155178500Y-71061695D01*
X155270677Y-70925140D01*
X155320740Y-70675500D01*
X155320740Y-69786500D01*
X155273763Y-69544377D01*
X155133973Y-69331573D01*
X154922940Y-69189123D01*
X154673300Y-69139060D01*
X154063700Y-69139060D01*
X153821577Y-69186037D01*
X153608773Y-69325827D01*
X153466323Y-69536860D01*
X153416260Y-69786500D01*
X153416260Y-70675500D01*
X153463237Y-70917623D01*
X153558500Y-71062643D01*
X153558500Y-71600560D01*
X152893000Y-71600560D01*
X152650877Y-71647537D01*
X152438073Y-71787327D01*
X152295623Y-71998360D01*
X152245560Y-72248000D01*
X152245560Y-73548000D01*
X152292537Y-73790123D01*
X152432327Y-74002927D01*
X152643360Y-74145377D01*
X152893000Y-74195440D01*
X152920095Y-74195440D01*
X152823623Y-74338360D01*
X152773560Y-74588000D01*
X152773560Y-76288000D01*
X152820537Y-76530123D01*
X152960327Y-76742927D01*
X153171360Y-76885377D01*
X153359260Y-76923058D01*
X153258629Y-77023515D01*
X153070215Y-77477266D01*
X153069786Y-77968579D01*
X153257408Y-78422657D01*
X153604515Y-78770371D01*
X154058266Y-78958785D01*
X154549579Y-78959214D01*
X155003657Y-78771592D01*
X155351371Y-78424485D01*
X155511661Y-78038462D01*
X155670408Y-78422657D01*
X156017515Y-78770371D01*
X156471266Y-78958785D01*
X156962579Y-78959214D01*
X157416657Y-78771592D01*
X157764371Y-78424485D01*
X157952785Y-77970734D01*
X157953214Y-77479421D01*
X157765592Y-77025343D01*
X157581000Y-76840428D01*
X157581000Y-76811030D01*
X157675927Y-76748673D01*
X157818377Y-76537640D01*
X157868440Y-76288000D01*
X157868440Y-74588000D01*
X157821463Y-74345877D01*
X157681673Y-74133073D01*
X157581879Y-74065711D01*
X157769943Y-73988005D01*
X158131735Y-73626845D01*
X158327777Y-73154724D01*
X158328223Y-72643519D01*
X158328223Y-89568910D01*
X158012529Y-89699352D01*
X157519085Y-90191936D01*
X157251705Y-90835857D01*
X157251097Y-91533084D01*
X157517352Y-92177471D01*
X158009936Y-92670915D01*
X158199753Y-92749734D01*
X158050244Y-92899244D01*
X157874658Y-93162026D01*
X157813000Y-93472000D01*
X157813000Y-94025487D01*
X156780244Y-95058244D01*
X156604658Y-95321026D01*
X156543000Y-95631000D01*
X156543000Y-96311487D01*
X155637244Y-97217244D01*
X155461658Y-97480026D01*
X155400000Y-97790000D01*
X155400000Y-98216487D01*
X154240244Y-99376244D01*
X154064658Y-99639026D01*
X154003000Y-99949000D01*
X154003000Y-100457000D01*
X154064658Y-100766974D01*
X154167912Y-100921504D01*
X152492214Y-103873721D01*
X152492214Y-99323421D01*
X152304592Y-98869343D01*
X152067000Y-98631335D01*
X152067000Y-97964443D01*
X152303371Y-97728485D01*
X152491785Y-97274734D01*
X152492214Y-96783421D01*
X152304592Y-96329343D01*
X151957485Y-95981629D01*
X151503734Y-95793215D01*
X151012421Y-95792786D01*
X150558343Y-95980408D01*
X150210629Y-96327515D01*
X150022215Y-96781266D01*
X150021786Y-97272579D01*
X150209408Y-97726657D01*
X150447000Y-97964664D01*
X150447000Y-98631556D01*
X150210629Y-98867515D01*
X150022215Y-99321266D01*
X150021786Y-99812579D01*
X150209408Y-100266657D01*
X150556515Y-100614371D01*
X151010266Y-100802785D01*
X151501579Y-100803214D01*
X151955657Y-100615592D01*
X152303371Y-100268485D01*
X152491785Y-99814734D01*
X152492214Y-99323421D01*
X152492214Y-103873721D01*
X152468389Y-103915696D01*
X151953079Y-104305655D01*
X151350691Y-104462750D01*
X150734040Y-104377363D01*
X150161705Y-104041798D01*
X150075176Y-103951472D01*
X148320340Y-100769969D01*
X148322342Y-100766974D01*
X148384000Y-100457000D01*
X148384000Y-99822000D01*
X148322342Y-99512027D01*
X148322342Y-99512026D01*
X148234549Y-99380635D01*
X148146756Y-99249244D01*
X148146756Y-99249243D01*
X147241000Y-98343487D01*
X147241000Y-97917000D01*
X147179342Y-97607027D01*
X147179342Y-97607026D01*
X147109012Y-97501770D01*
X147003757Y-97344244D01*
X146225000Y-96565487D01*
X146225000Y-95631000D01*
X146163342Y-95321027D01*
X146163342Y-95321026D01*
X146093012Y-95215770D01*
X145987757Y-95058244D01*
X145209000Y-94279487D01*
X145209000Y-93599000D01*
X145147342Y-93289027D01*
X145147342Y-93289026D01*
X145059549Y-93157635D01*
X144971756Y-93026244D01*
X144971756Y-93026243D01*
X144658307Y-92712795D01*
X144755471Y-92672648D01*
X145248915Y-92180064D01*
X145516295Y-91536143D01*
X145516903Y-90838916D01*
X145250648Y-90194529D01*
X144758064Y-89701085D01*
X144114143Y-89433705D01*
X143416916Y-89433097D01*
X143050000Y-89584703D01*
X143050000Y-88900000D01*
X143015766Y-88727896D01*
X142988343Y-88590027D01*
X142988342Y-88590026D01*
X142812757Y-88327244D01*
X142161000Y-87675487D01*
X142161000Y-86741000D01*
X142099343Y-86431027D01*
X142099342Y-86431026D01*
X141923757Y-86168244D01*
X141526000Y-85770487D01*
X141526000Y-84201000D01*
X141491766Y-84028896D01*
X141464343Y-83891027D01*
X141464342Y-83891026D01*
X141288757Y-83628244D01*
X140764000Y-83103487D01*
X140764000Y-81280000D01*
X140702343Y-80970027D01*
X140702342Y-80970026D01*
X140526757Y-80707244D01*
X140129000Y-80309487D01*
X140129000Y-78994000D01*
X140094766Y-78821896D01*
X140067343Y-78684027D01*
X140067342Y-78684026D01*
X139891757Y-78421244D01*
X139725203Y-78254690D01*
X139378983Y-75158320D01*
X140047084Y-75158903D01*
X140691471Y-74892648D01*
X141184915Y-74400064D01*
X141452295Y-73756143D01*
X141452903Y-73058916D01*
X141186648Y-72414529D01*
X140694064Y-71921085D01*
X140050143Y-71653705D01*
X139367000Y-71653109D01*
X139367000Y-66756512D01*
X139510756Y-66612757D01*
X139510756Y-66612756D01*
X139598549Y-66481365D01*
X139686342Y-66349974D01*
X139686342Y-66349973D01*
X139747999Y-66040000D01*
X139748000Y-66040000D01*
X139748000Y-65232512D01*
X140145756Y-64834756D01*
X140145757Y-64834756D01*
X140321342Y-64571974D01*
X140321343Y-64571973D01*
X140383000Y-64262000D01*
X140383000Y-62311512D01*
X140780756Y-61913756D01*
X140780757Y-61913756D01*
X140956342Y-61650974D01*
X140956343Y-61650973D01*
X141018000Y-61341000D01*
X141018000Y-59390512D01*
X141669756Y-58738756D01*
X141669757Y-58738756D01*
X141845342Y-58475974D01*
X141845343Y-58475973D01*
X141872766Y-58338103D01*
X141906999Y-58166000D01*
X141907000Y-58166000D01*
X141907000Y-57886309D01*
X142587084Y-57886903D01*
X143231471Y-57620648D01*
X143724915Y-57128064D01*
X143992295Y-56484143D01*
X143992903Y-55786916D01*
X143726648Y-55142529D01*
X143234064Y-54649085D01*
X142923000Y-54519919D01*
X142923000Y-53548512D01*
X143320756Y-53150756D01*
X143320757Y-53150756D01*
X143496342Y-52887974D01*
X143496343Y-52887973D01*
X143558000Y-52578000D01*
X143558000Y-51612512D01*
X143699243Y-51753756D01*
X143699244Y-51753756D01*
X143830635Y-51841549D01*
X143962026Y-51929342D01*
X143962027Y-51929342D01*
X144272000Y-51991000D01*
X150447000Y-51991000D01*
X150447000Y-62310112D01*
X150417463Y-62157877D01*
X150277673Y-61945073D01*
X150066640Y-61802623D01*
X149817000Y-61752560D01*
X147617000Y-61752560D01*
X147374877Y-61799537D01*
X147192018Y-61919655D01*
X147018640Y-61802623D01*
X146769000Y-61752560D01*
X144569000Y-61752560D01*
X144326877Y-61799537D01*
X144114073Y-61939327D01*
X143971623Y-62150360D01*
X143921560Y-62400000D01*
X143921560Y-64600000D01*
X143968537Y-64842123D01*
X144108327Y-65054927D01*
X144319360Y-65197377D01*
X144569000Y-65247440D01*
X144608126Y-65247440D01*
X144434215Y-65666266D01*
X144433786Y-66157579D01*
X144621408Y-66611657D01*
X144968515Y-66959371D01*
X145422266Y-67147785D01*
X145913579Y-67148214D01*
X146153337Y-67049147D01*
X146113760Y-67246500D01*
X146113760Y-68135500D01*
X146160737Y-68377623D01*
X146300527Y-68590427D01*
X146511560Y-68732877D01*
X146761200Y-68782940D01*
X147370800Y-68782940D01*
X147612923Y-68735963D01*
X147825727Y-68596173D01*
X147968177Y-68385140D01*
X148018240Y-68135500D01*
X148018240Y-67246500D01*
X147971263Y-67004377D01*
X147876000Y-66859356D01*
X147876000Y-66818610D01*
X148016515Y-66959371D01*
X148470266Y-67147785D01*
X148961579Y-67148214D01*
X149415657Y-66960592D01*
X149763371Y-66613485D01*
X149951785Y-66159734D01*
X149952214Y-65668421D01*
X149778267Y-65247440D01*
X149817000Y-65247440D01*
X150059123Y-65200463D01*
X150271927Y-65060673D01*
X150414377Y-64849640D01*
X150447000Y-64686964D01*
X150447000Y-79883000D01*
X150447000Y-91440000D01*
X150447000Y-93853000D01*
X150462714Y-93932000D01*
X150266236Y-93932000D01*
X150200223Y-93865871D01*
X150200223Y-72643519D01*
X150005005Y-72171057D01*
X149643845Y-71809265D01*
X149171724Y-71613223D01*
X148958300Y-71613036D01*
X148958300Y-70801810D01*
X148958300Y-70549191D01*
X148958300Y-70516750D01*
X148958300Y-69945250D01*
X148958300Y-69912809D01*
X148958300Y-69660190D01*
X148861627Y-69426801D01*
X148682998Y-69248173D01*
X148449609Y-69151500D01*
X148304250Y-69151500D01*
X148145500Y-69310250D01*
X148145500Y-70104000D01*
X148799550Y-70104000D01*
X148958300Y-69945250D01*
X148958300Y-70516750D01*
X148799550Y-70358000D01*
X148145500Y-70358000D01*
X148145500Y-71151750D01*
X148304250Y-71310500D01*
X148449609Y-71310500D01*
X148682998Y-71213827D01*
X148861627Y-71035199D01*
X148958300Y-70801810D01*
X148958300Y-71613036D01*
X148660519Y-71612777D01*
X148188057Y-71807995D01*
X147891500Y-72104033D01*
X147891500Y-71151750D01*
X147891500Y-70358000D01*
X147891500Y-70104000D01*
X147891500Y-69310250D01*
X147732750Y-69151500D01*
X147587391Y-69151500D01*
X147354002Y-69248173D01*
X147175373Y-69426801D01*
X147078700Y-69660190D01*
X147078700Y-69912809D01*
X147078700Y-69945250D01*
X147237450Y-70104000D01*
X147891500Y-70104000D01*
X147891500Y-70358000D01*
X147237450Y-70358000D01*
X147078700Y-70516750D01*
X147078700Y-70549191D01*
X147078700Y-70801810D01*
X147175373Y-71035199D01*
X147354002Y-71213827D01*
X147587391Y-71310500D01*
X147732750Y-71310500D01*
X147891500Y-71151750D01*
X147891500Y-72104033D01*
X147826265Y-72169155D01*
X147630223Y-72641276D01*
X147629777Y-73152481D01*
X147706000Y-73336954D01*
X147706000Y-74064969D01*
X147611073Y-74127327D01*
X147468623Y-74338360D01*
X147418560Y-74588000D01*
X147418560Y-76288000D01*
X147465537Y-76530123D01*
X147605327Y-76742927D01*
X147660440Y-76780129D01*
X147416629Y-77023515D01*
X147256338Y-77409537D01*
X147097592Y-77025343D01*
X146860000Y-76787335D01*
X146860000Y-75872000D01*
X146798343Y-75562027D01*
X146798342Y-75562026D01*
X146733177Y-75464499D01*
X146798342Y-75366974D01*
X146798342Y-75366973D01*
X146859999Y-75057000D01*
X146860000Y-75057000D01*
X146860000Y-73533000D01*
X146798343Y-73223027D01*
X146798342Y-73223026D01*
X146712440Y-73094465D01*
X146712440Y-73094464D01*
X146712440Y-72733069D01*
X146774049Y-72640865D01*
X146861842Y-72509474D01*
X146861842Y-72509473D01*
X146923499Y-72199500D01*
X146923500Y-72199500D01*
X146923500Y-71061695D01*
X147015677Y-70925140D01*
X147065740Y-70675500D01*
X147065740Y-69786500D01*
X147018763Y-69544377D01*
X146878973Y-69331573D01*
X146667940Y-69189123D01*
X146418300Y-69139060D01*
X145808700Y-69139060D01*
X145566577Y-69186037D01*
X145353773Y-69325827D01*
X145211323Y-69536860D01*
X145161260Y-69786500D01*
X145161260Y-70675500D01*
X145208237Y-70917623D01*
X145303500Y-71062643D01*
X145303500Y-71600560D01*
X144765000Y-71600560D01*
X144522877Y-71647537D01*
X144310073Y-71787327D01*
X144167623Y-71998360D01*
X144117560Y-72248000D01*
X144117560Y-73548000D01*
X144164537Y-73790123D01*
X144304327Y-74002927D01*
X144515360Y-74145377D01*
X144677007Y-74177793D01*
X144568623Y-74338360D01*
X144518560Y-74588000D01*
X144518560Y-76288000D01*
X144565537Y-76530123D01*
X144705327Y-76742927D01*
X144916360Y-76885377D01*
X145104260Y-76923058D01*
X145003629Y-77023515D01*
X144815215Y-77477266D01*
X144814786Y-77968579D01*
X145002408Y-78422657D01*
X145349515Y-78770371D01*
X145803266Y-78958785D01*
X146294579Y-78959214D01*
X146748657Y-78771592D01*
X147096371Y-78424485D01*
X147256661Y-78038462D01*
X147415408Y-78422657D01*
X147762515Y-78770371D01*
X148216266Y-78958785D01*
X148707579Y-78959214D01*
X149161657Y-78771592D01*
X149509371Y-78424485D01*
X149697785Y-77970734D01*
X149698214Y-77479421D01*
X149510592Y-77025343D01*
X149326000Y-76840428D01*
X149326000Y-76811030D01*
X149420927Y-76748673D01*
X149563377Y-76537640D01*
X149613440Y-76288000D01*
X149613440Y-74588000D01*
X149566463Y-74345877D01*
X149426673Y-74133073D01*
X149375101Y-74098261D01*
X149641943Y-73988005D01*
X150003735Y-73626845D01*
X150199777Y-73154724D01*
X150200223Y-72643519D01*
X150200223Y-93865871D01*
X150040420Y-93705789D01*
X149586669Y-93517375D01*
X149095356Y-93516946D01*
X148641278Y-93704568D01*
X148293564Y-94051675D01*
X148105150Y-94505426D01*
X148104721Y-94996739D01*
X148292343Y-95450817D01*
X148639450Y-95798531D01*
X149093201Y-95986945D01*
X149584514Y-95987374D01*
X150038592Y-95799752D01*
X150286777Y-95552000D01*
X151998861Y-95552000D01*
X152234820Y-95788371D01*
X152688571Y-95976785D01*
X153179884Y-95977214D01*
X153633962Y-95789592D01*
X153981676Y-95442485D01*
X154170090Y-94988734D01*
X154170519Y-94497421D01*
X153982897Y-94043343D01*
X153635790Y-93695629D01*
X153182039Y-93507215D01*
X152690726Y-93506786D01*
X152236648Y-93694408D01*
X152064329Y-93866425D01*
X152067000Y-93853000D01*
X152067000Y-91440000D01*
X152067000Y-79883000D01*
X152067000Y-64689887D01*
X152096537Y-64842123D01*
X152236327Y-65054927D01*
X152447360Y-65197377D01*
X152697000Y-65247440D01*
X152736126Y-65247440D01*
X152562215Y-65666266D01*
X152561786Y-66157579D01*
X152749408Y-66611657D01*
X153096515Y-66959371D01*
X153550266Y-67147785D01*
X154041579Y-67148214D01*
X154423054Y-66990590D01*
X154418823Y-66996860D01*
X154368760Y-67246500D01*
X154368760Y-68135500D01*
X154415737Y-68377623D01*
X154555527Y-68590427D01*
X154766560Y-68732877D01*
X155016200Y-68782940D01*
X155625800Y-68782940D01*
X155867923Y-68735963D01*
X156080727Y-68596173D01*
X156223177Y-68385140D01*
X156273240Y-68135500D01*
X156273240Y-67246500D01*
X156226263Y-67004377D01*
X156216271Y-66989166D01*
X156598266Y-67147785D01*
X157089579Y-67148214D01*
X157543657Y-66960592D01*
X157891371Y-66613485D01*
X158079785Y-66159734D01*
X158080214Y-65668421D01*
X157906267Y-65247440D01*
X157945000Y-65247440D01*
X158187123Y-65200463D01*
X158399927Y-65060673D01*
X158542377Y-64849640D01*
X158592440Y-64600000D01*
X158592440Y-62400000D01*
X158545463Y-62157877D01*
X158405673Y-61945073D01*
X158194640Y-61802623D01*
X157945000Y-61752560D01*
X155745000Y-61752560D01*
X155502877Y-61799537D01*
X155320018Y-61919655D01*
X155146640Y-61802623D01*
X154897000Y-61752560D01*
X152697000Y-61752560D01*
X152454877Y-61799537D01*
X152242073Y-61939327D01*
X152099623Y-62150360D01*
X152067000Y-62313035D01*
X152067000Y-51991000D01*
X158242000Y-51991000D01*
X158242000Y-51990999D01*
X158551973Y-51929342D01*
X158551974Y-51929342D01*
X158814756Y-51753756D01*
X158956000Y-51612512D01*
X158956000Y-52451000D01*
X159017658Y-52760974D01*
X159193244Y-53023756D01*
X159972000Y-53802512D01*
X159972000Y-54381136D01*
X159926916Y-54381097D01*
X159282529Y-54647352D01*
X158789085Y-55139936D01*
X158521705Y-55783857D01*
X158521097Y-56481084D01*
X158787352Y-57125471D01*
X159279936Y-57618915D01*
X159923857Y-57886295D01*
X160621084Y-57886903D01*
X160790841Y-57816760D01*
X160795658Y-57840974D01*
X160971244Y-58103756D01*
X161303757Y-58436270D01*
X161369000Y-58684588D01*
X161369000Y-59436000D01*
X161369000Y-60452000D01*
X161430658Y-60761974D01*
X161606244Y-61024756D01*
X162004000Y-61422512D01*
X162004000Y-63246000D01*
X162065658Y-63555974D01*
X162241244Y-63818756D01*
X162512000Y-64089512D01*
X162512000Y-65405000D01*
X162573658Y-65714974D01*
X162749244Y-65977756D01*
X163020000Y-66248512D01*
X163020000Y-71653579D01*
X162466916Y-71653097D01*
X161822529Y-71919352D01*
X161329085Y-72411936D01*
X161061705Y-73055857D01*
X161061097Y-73753084D01*
X161327352Y-74397471D01*
X161819936Y-74890915D01*
X162463857Y-75158295D01*
X163020000Y-75158779D01*
X163020000Y-76555288D01*
M02*
